<svg width="268" height="268" viewBox="0 0 268 268" fill="none" xmlns="http://www.w3.org/2000/svg">
<g filter="url(#filter0_d)">
<path d="M112.522 116.501C100.192 123.936 93.8936 121.412 84.451 137.783C73.0728 157.51 80.515 181.197 100.05 192.465C119.585 203.732 142.928 199.851 154.307 180.125C163.749 163.754 158.194 158.5 158.079 143.477C157.953 126.826 173.197 111.684 152.563 99.7833C130.162 86.8622 127.034 107.752 112.522 116.501Z" fill="#A4D31F"/>
<path fill-rule="evenodd" clip-rule="evenodd" d="M102.647 116.911C105.047 115.877 107.561 114.725 110.414 113.004C113.505 111.141 116.093 108.568 118.713 105.652C119.281 105.02 119.863 104.356 120.459 103.676C122.466 101.386 124.628 98.9179 126.902 96.937C129.994 94.2434 133.741 92.0096 138.588 91.6423C143.366 91.2804 148.592 92.7789 154.604 96.2462C160.272 99.5158 163.928 103.274 165.85 107.646C167.765 112.001 167.717 116.42 167.04 120.515C166.539 123.547 165.62 126.736 164.76 129.717C164.497 130.629 164.24 131.522 164.002 132.385C162.934 136.257 162.135 139.874 162.163 143.446C162.189 146.944 162.531 149.89 162.912 152.688C162.972 153.129 163.034 153.573 163.097 154.02C163.421 156.336 163.754 158.721 163.856 161.122C164.117 167.24 162.895 173.407 157.844 182.165C145.129 204.209 119.114 208.174 98.0098 196.002C76.6815 183.7 68.3187 157.58 80.9138 135.743C85.9263 127.053 90.3591 122.984 95.4475 120.207C97.3901 119.147 99.4251 118.282 101.382 117.45C101.808 117.269 102.23 117.09 102.647 116.911ZM102.912 121.238C105.745 120.033 108.869 118.704 112.522 116.501C117.028 113.785 120.436 109.898 123.665 106.216C130.834 98.0394 137.117 90.874 152.563 99.7833C166.771 107.978 163.968 117.709 160.886 128.411C159.491 133.252 158.04 138.291 158.079 143.477C158.113 147.854 158.608 151.402 159.06 154.637C160.158 162.505 160.998 168.524 154.307 180.125C142.928 199.851 119.585 203.733 100.05 192.465C80.515 181.197 73.0728 157.51 84.451 137.783C91.0958 126.263 96.1835 124.099 102.912 121.238Z" fill="#5B7C14"/>
<path fill-rule="evenodd" clip-rule="evenodd" d="M80.6339 168.215C82.8222 171.334 85.4787 174.224 88.5811 176.79C105.961 191.16 129.625 191.229 144.136 173.678C152.67 163.357 152.846 157.283 153.077 149.342C153.171 146.076 153.275 142.496 153.973 138.175C154.8 133.055 157.072 128.328 159.255 123.788C160.856 120.457 162.41 117.225 163.308 114.012C163.723 118.558 162.335 123.377 160.885 128.411C159.491 133.252 158.04 138.291 158.079 143.477C158.112 147.854 158.608 151.402 159.059 154.637C160.158 162.505 160.998 168.524 154.306 180.125C142.928 199.852 119.585 203.733 100.05 192.465C90.2552 186.816 83.5006 178.044 80.6339 168.215Z" fill="#92BC1B"/>
<path d="M120.282 125.763C122.852 130.186 119.018 137.211 111.718 141.453C104.417 145.696 96.4152 145.55 93.8448 141.127C91.2745 136.704 95.109 129.68 102.409 125.437C109.71 121.194 117.712 121.34 120.282 125.763Z" fill="#BBEB35"/>
<path d="M145.636 100.834C146.303 102.873 144.114 105.419 140.748 106.519C137.381 107.62 134.112 106.859 133.445 104.819C132.778 102.78 134.967 100.234 138.333 99.1336C141.7 98.0331 144.969 98.7942 145.636 100.834Z" fill="#BBEB35"/>
<path fill-rule="evenodd" clip-rule="evenodd" d="M107.862 130.866C108.743 132.942 107.774 135.339 105.698 136.22C104.677 136.654 104.002 137.113 103.562 137.532C101.93 139.089 99.3455 139.027 97.7891 137.395C96.2327 135.763 96.2941 133.179 97.9261 131.622C99.2251 130.384 100.79 129.432 102.508 128.703C104.584 127.822 106.981 128.79 107.862 130.866Z" fill="white"/>
<path d="M189.988 93.6194C189.988 93.6194 178.209 100.543 170.077 100.234C161.946 99.924 155.635 92.3115 155.635 92.3115C155.635 92.3115 162.507 85.201 170.638 85.5105C178.769 85.8201 189.988 93.6194 189.988 93.6194Z" fill="#87D623"/>
<path fill-rule="evenodd" clip-rule="evenodd" d="M192.057 97.1397L189.988 93.6194L192.319 90.2666C193.462 91.0613 194.122 92.3836 194.069 93.7747C194.016 95.1659 193.258 96.4342 192.057 97.1397ZM186.014 91.1377C188.413 92.5239 189.988 93.6194 189.988 93.6194C189.988 93.6194 188.334 94.5919 185.837 95.7917C181.671 97.7932 175.161 100.427 170.077 100.234C161.946 99.924 155.635 92.3115 155.635 92.3115C155.635 92.3115 162.507 85.201 170.638 85.5105C175.722 85.7041 182.013 88.8253 186.014 91.1377ZM155.635 92.3115C152.698 89.4739 152.699 89.473 152.7 89.472L152.702 89.47L152.706 89.4655L152.717 89.4545L152.746 89.4248C152.769 89.4017 152.799 89.3718 152.835 89.3358C152.908 89.2636 153.007 89.1664 153.132 89.0479C153.381 88.811 153.733 88.4872 154.176 88.1064C155.06 87.3484 156.33 86.3454 157.896 85.3494C160.948 83.408 165.54 81.2302 170.793 81.4301C175.83 81.6219 181.359 84.0352 185.247 86.0588C187.275 87.114 189.026 88.155 190.271 88.9323C190.895 89.3219 191.396 89.6481 191.746 89.8801C191.922 89.9962 192.059 90.089 192.156 90.1546L192.269 90.2323L192.302 90.2551L192.317 90.2648L192.319 90.2666C192.32 90.267 192.319 90.2666 189.988 93.6194C192.057 97.1397 192.058 97.1393 192.057 97.1397L192.055 97.1413L192.04 97.1499L192.005 97.1701L191.886 97.2389C191.785 97.297 191.64 97.3791 191.457 97.4815C191.09 97.6863 190.566 97.9733 189.914 98.3144C188.613 98.9948 186.788 99.8997 184.686 100.798C180.655 102.52 174.958 104.506 169.922 104.314C164.669 104.114 160.256 101.593 157.36 99.4255C155.874 98.3133 154.684 97.2167 153.861 96.3937C153.447 95.9803 153.121 95.6306 152.891 95.3755C152.775 95.2478 152.684 95.1433 152.617 95.0659C152.583 95.0271 152.556 94.9951 152.535 94.9703L152.508 94.9385L152.499 94.9267L152.493 94.9197C152.492 94.9187 152.491 94.9178 155.635 92.3115ZM152.698 89.4739L155.635 92.3115L152.491 94.9178C151.163 93.3155 151.252 90.9705 152.698 89.4739Z" fill="#156319"/>
<path d="M170.085 98.9737C176.998 99.2369 186.998 93.7506 186.998 93.7506C173.171 89.8692 161.765 91.3921 157.79 92.6387C157.79 92.6387 163.171 98.7105 170.085 98.9737Z" fill="#79C01E"/>
<path d="M151.632 77.0335C153.369 79.2888 153.797 91.3652 152.739 96.7642C152.651 97.2147 153.911 97.4173 153.993 97.0265C155.765 92.5027 159.002 81.0592 158.148 76.1305C154.784 74.4479 152.166 76.1255 151.632 77.0335Z" fill="#8C5936"/>
<path fill-rule="evenodd" clip-rule="evenodd" d="M148.256 79.3307C147.372 78.0316 147.309 76.3304 148.113 74.9635C149.055 73.3609 150.87 72.2033 152.719 71.6811C154.812 71.0895 157.358 71.1695 159.975 72.4787C161.134 73.0589 161.95 74.1556 162.171 75.4335C162.485 77.2422 162.39 79.3401 162.165 81.3048C161.931 83.3368 161.519 85.5262 161.036 87.6402C160.097 91.7475 158.828 95.837 157.865 98.3353C157.173 100.489 155.177 101.078 154.648 101.197C153.836 101.38 153.092 101.325 152.559 101.226C152.039 101.13 151.265 100.909 150.517 100.376C149.802 99.8663 148.265 98.3604 148.732 95.9793C149.169 93.7459 149.34 89.7508 149.155 85.9168C149.064 84.0341 148.893 82.3242 148.664 81.011C148.549 80.3519 148.431 79.864 148.328 79.5373C148.298 79.4406 148.273 79.3733 148.256 79.3307ZM153.993 97.0266C153.995 97.0214 153.997 97.0163 153.999 97.0111C154.346 96.1246 154.748 94.9748 155.164 93.6618C155.915 91.2951 156.712 88.3978 157.314 85.5561C158.085 81.9105 158.533 78.3563 158.148 76.1306C157.167 75.6399 156.25 75.435 155.429 75.4134C154.557 75.3904 153.794 75.5743 153.179 75.8424C152.389 76.1874 151.845 76.6716 151.632 77.0335C152.464 78.1143 152.996 81.4502 153.208 85.2258C153.356 87.8672 153.347 90.7237 153.175 93.174C153.087 94.4358 152.955 95.5898 152.779 96.5512C152.766 96.6233 152.753 96.6944 152.739 96.7643C152.651 97.2147 153.911 97.4174 153.993 97.0266ZM150.247 95.3918C150.143 95.6315 150.057 95.8969 149.996 96.1904C150.043 95.9676 150.108 95.7491 150.191 95.5372C150.209 95.4897 150.228 95.4412 150.247 95.3918Z" fill="#583A24"/>
<path d="M158.664 76.9422C158.782 78.1104 157.227 79.2236 155.191 79.4286C153.154 79.6337 151.408 78.8528 151.291 77.6847C151.173 76.5165 152.728 75.4033 154.765 75.1982C156.801 74.9932 158.547 75.774 158.664 76.9422Z" fill="#C27A49"/>
<path d="M145.53 163.36C144.55 165.059 142.379 165.642 140.68 164.662C138.982 163.682 138.399 161.511 139.379 159.812C140.359 158.114 142.53 157.531 144.229 158.511C145.927 159.49 146.51 161.662 145.53 163.36Z" fill="#83A918"/>
<path d="M151.209 174.834C150.23 176.533 148.058 177.116 146.36 176.136C144.661 175.156 144.078 172.985 145.058 171.286C146.038 169.587 148.209 169.005 149.908 169.984C151.606 170.964 152.189 173.136 151.209 174.834Z" fill="#83A918"/>
<path d="M155.437 163.951C154.702 165.225 153.074 165.662 151.8 164.927C150.526 164.192 150.089 162.564 150.824 161.29C151.558 160.016 153.187 159.579 154.461 160.313C155.735 161.048 156.172 162.677 155.437 163.951Z" fill="#83A918"/>
<path d="M145 185.599C144.02 187.298 141.849 187.881 140.15 186.901C138.452 185.921 137.869 183.75 138.849 182.051C139.828 180.352 142 179.77 143.699 180.749C145.397 181.729 145.98 183.901 145 185.599Z" fill="#83A918"/>
<path d="M139.321 174.126C138.341 175.824 136.17 176.407 134.471 175.427C132.772 174.448 132.19 172.276 133.169 170.578C134.149 168.879 136.321 168.296 138.019 169.276C139.718 170.256 140.301 172.427 139.321 174.126Z" fill="#83A918"/>
<path d="M133.527 191.279C132.547 192.977 130.375 193.56 128.677 192.58C126.978 191.601 126.395 189.429 127.375 187.73C128.355 186.032 130.526 185.449 132.225 186.429C133.924 187.409 134.506 189.58 133.527 191.279Z" fill="#83A918"/>
<path d="M126.96 181.343C125.981 183.041 123.809 183.624 122.11 182.644C120.412 181.665 119.829 179.493 120.809 177.795C121.789 176.096 123.96 175.513 125.659 176.493C127.357 177.473 127.94 179.644 126.96 181.343Z" fill="#83A918"/>
<path d="M121.845 193.764C121.111 195.038 119.482 195.475 118.208 194.74C116.934 194.005 116.497 192.377 117.232 191.103C117.967 189.829 119.595 189.392 120.869 190.127C122.143 190.861 122.58 192.49 121.845 193.764Z" fill="#83A918"/>
</g>
<defs>
<filter id="filter0_d" x="-3.05176e-05" y="0" width="269.711" height="269.711" filterUnits="userSpaceOnUse" color-interpolation-filters="sRGB">
<feFlood flood-opacity="0" result="BackgroundImageFix"/>
<feColorMatrix in="SourceAlpha" type="matrix" values="0 0 0 0 0 0 0 0 0 0 0 0 0 0 0 0 0 0 127 0"/>
<feOffset dx="2" dy="2"/>
<feColorMatrix type="matrix" values="0 0 0 0 0 0 0 0 0 0 0 0 0 0 0 0 0 0 0.2 0"/>
<feBlend mode="normal" in2="BackgroundImageFix" result="effect1_dropShadow"/>
<feBlend mode="normal" in="SourceGraphic" in2="effect1_dropShadow" result="shape"/>
</filter>
</defs>
</svg>
